<?xml version="1.0" encoding="utf-8"?>
<!-- Generator: Adobe Illustrator 25.4.1, SVG Export Plug-In . SVG Version: 6.00 Build 0)  -->
<svg version="1.1" id="Layer_1" xmlns="http://www.w3.org/2000/svg" xmlns:xlink="http://www.w3.org/1999/xlink" x="0px" y="0px"
	 viewBox="0 0 465 188" style="enable-background:new 0 0 465 188;" xml:space="preserve">
<style type="text/css">
	.st0{fill:#21205F;}
	.st1{fill:#F7923A;}
</style>
<path class="st0" d="M448,110.3l-13.1-14.2l11.7-13.4l-7.4,0l-10.3,13.5l10.8,14.1L448,110.3z M421.6,110.4l5.9,0l-0.2-39.4l-5.9,0
	L421.6,110.4z M392.8,110.5h5.9l0-11.4c0-6.5,3.7-11.8,8.4-11.8c3.1,0,5.1,1.9,5.1,4.8l0.1,18.3l5.8,0L418,90.9
	c0-5.1-4.3-8.5-10.7-8.5c-3.6,0-6.8,2.8-8.8,6.9l-0.4-6.5l-5.5,0L392.8,110.5z M368.4,96.8c0-5.3,2.5-8.9,6.3-9l7,0l0,8.5
	c0,5.4-3.1,9.8-7,9.8C370.9,106.2,368.4,102.5,368.4,96.8z M362.3,96.9c0,8.5,4.5,14.2,11.3,14.1c3.6,0,6.8-2.6,8.6-6.5l0.3,5.9
	l5.3,0.3c0,0-0.3-4.4-0.3-7.6l-0.1-20.1l-5.1,0l-0.7,4.5l-3-4.5l-5.3,0C366.7,83.1,362.3,88.6,362.3,96.9z M341.3,76.7h4.3
	c4.4,0,7.4,1.9,7.4,4.8c0,3.9-3,6.5-7.4,6.5h-4.3L341.3,76.7z M341.4,92.9l5.8,0c4.5,0,7.4,2.9,7.4,7.3c0,3.4-2.9,5.7-7.4,5.7
	l-5.8,0L341.4,92.9z M335.3,110.8l13,0c7.6,0,12.7-4.3,12.6-10.6c0-5-4.6-9-10.4-9.9c4.7-1.4,8.1-4.8,8.1-8.8
	c0-5.8-5.1-9.7-12.7-9.7l-10.8,0L335.3,110.8z M305.9,110.9l5.9,0l0-11c0-6.7,3.7-12.2,8.4-12.2c3.1,0,5.1,1.9,5.2,4.8l0.1,18.3
	l5.9,0l-0.1-19.5c0-5.1-4.3-8.5-10.7-8.5c-3.6,0-6.8,2.8-8.8,7l-0.1-18.4l-5.9,0L305.9,110.9z M282.8,109.5c2.3,1,5.8,1.8,8.4,1.8
	c7.6,0,11.7-3,11.7-8.6c0-5.9-5-7.4-9.3-8.7c-2.9-0.9-5.3-2.1-5.4-3.8c0-1.7,1.9-2.6,5.5-2.6c2.8,0,5.3,1,7.3,2.6l0-6.5
	c-2.3-0.6-4.6-0.9-7-0.9c-7.4,0-11.3,2.7-11.3,7.5c0,6.4,5.3,8,9.6,9.2c3,0.9,5.1,2,5.1,3.8c0,2-1.8,3.2-5.5,3.2
	c-2.7,0-6.3-1.2-9.2-3.5L282.8,109.5z M259.1,97.3c0-5.4,2.5-8.9,6.3-9l7,0l0,8.5c0,5.4-3.1,9.8-7,9.8
	C261.7,106.7,259.2,103,259.1,97.3z M253,97.4c0,8.5,4.5,14.2,11.3,14.2c3.6,0,6.8-2.6,8.6-6.5l0.3,5.9l5.3,0.3c0,0-0.3-4.4-0.3-7.6
	l-0.1-20.1l-5.1,0l-0.7,4.5l-3-4.5l-5.3,0C257.5,83.5,253,89.1,253,97.4z M220.9,111.3l5.9,0l5.8-18.8l6,18.7l5.9,0l8.7-27.6l-7.5,0
	l-4.1,22.8l-5.8-22.8l-6.2,0l-5.6,22.8l-4.5-22.8l-7.5,0L220.9,111.3z M194.5,98.7l5.6-21.3l5.8,21.2L194.5,98.7z M184.5,111.5
	l6.6,0l2.2-8.1l13.9,0l2.2,8.1l6.6,0l-12.7-38.9l-6.5,0L184.5,111.5z"/>
<path class="st0" d="M169,110.4c-0.4-0.9-1-1.6-1.5-2.4c-0.6-0.8-1.2-1.5-1.9-2.1c-0.7-0.6-1.5-1-2.5-1.4c-0.8-0.2-1.8-0.3-2.8-0.2
	c-1.9,0.2-3.8,0.9-5.5,1.7c-3.5,1.7-6.8,3.9-10,6.2c-3.2,2.3-6.3,4.7-9.4,7.1l-8.4,6.5c-2.8,2.2-5.7,4.2-8.5,6.3
	c-2.9,2-5.8,4.1-8.8,5.9l-4.5,2.8l-4.7,2.5c-3.1,1.8-6.5,3.1-9.8,4.6l-5,1.8l-2.5,0.9l-2.7,0.7l-5.3,1.3c-1.8,0.4-3.6,0.6-5.4,1
	c-3.6,0.7-7.2,0.9-10.8,1.2c-3.6,0.1-7.2,0.3-10.8,0.2l-5.4-0.1l-5.4-0.4c-0.5,0-0.9-0.1-1.4-0.1c20.8,15,48.1,20.9,74.9,13.6
	c28.8-7.8,50.3-28.9,59.5-54.8C170,112.4,169.5,111.4,169,110.4z"/>
<path class="st0" d="M172.5,68.7c-0.6,0-1.6,0.1-2.5,0.4c-1.8,0.5-3.7,1.4-5.6,2.4c-3.8,2-7.4,4.6-11,7.1l-10.9,7.8
	c-3.7,2.6-7.4,5.1-11.1,7.6c-1.9,1.2-3.8,2.3-5.7,3.5c-1.9,1.2-3.9,2.2-5.9,3.3c-1.9,1.1-4,2.1-6,3.1s-4,2-6.1,2.7
	c-2.1,0.8-4.1,1.8-6.3,2.4l-6.5,2l-6.6,1.5c-2.2,0.5-4.4,0.7-6.6,1c-2.2,0.4-4.5,0.5-6.7,0.6c-2.3,0.2-4.5,0.3-6.7,0.2
	c-2.3,0-4.5,0.1-6.7,0c-2.3-0.1-4.5-0.1-6.7-0.3c-4.5-0.3-8.9-0.6-13.4-1.1l-13.3-1.4c-4.4-0.4-8.9-0.8-13.3-0.7
	c-2.2,0-4.4,0.2-6.4,0.7c-1,0.2-1.8,0.5-2.6,1c3.6,10.7,9.2,20.2,16.2,28.3c0.4,0.1,0.7,0.1,1.1,0.1c4.8,0.7,9.6,1.3,14.4,1.8
	s9.6,0.9,14.4,1c2.4,0,4.8,0.1,7.2,0c2.4-0.1,4.8-0.2,7.1-0.4c2.3-0.3,4.7-0.6,7-0.9l7-1.5l6.8-2.1c2.2-0.8,4.4-1.8,6.6-2.7
	c2.2-1,4.3-2.1,6.4-3.1c2.1-1.1,4.2-2.4,6.3-3.5c4.1-2.5,8.1-5.1,12-7.9c3.9-2.8,7.8-5.7,11.6-8.6c3.9-2.9,7.8-5.8,11.9-8.6
	c4.1-2.7,8.4-5.3,13.3-6.7c2.4-0.6,5.1-0.9,7.7-0.4c2.5,0.5,5,1.7,6.8,3.5c0.9,0.9,1.8,1.8,2.6,2.8c2.5-11.1,2.7-22.9,0.3-34.7
	C172.5,68.7,172.5,68.7,172.5,68.7z"/>
<path class="st1" d="M34.6,103c4.9,0.6,9.8,1.1,14.6,1.6c4.9,0.4,9.7,0.7,14.6,0.8c2.4,0,4.9,0,7.3-0.1c2.4-0.2,4.8-0.3,7.2-0.5
	c2.4-0.4,4.8-0.6,7.1-1.1l6.9-1.6l7-2.3c2.2-0.9,4.3-1.9,6.5-2.8c2.2-1,4.3-2.2,6.4-3.3s4.2-2.5,6.2-3.7c4.1-2.6,8-5.3,11.9-8.2
	c3-2.2,5.9-4.5,8.9-6.8c-4.1,1.3-8.1,2.4-11.9,3.5l-0.5,0.1c-1,0.2-1.9,0.4-2.9,0.7c-2,0.5-4,1-6.2,1.4l-0.4,0.1
	c-0.9,0.1-1.9,0.3-2.8,0.5c-2,0.4-4,0.7-6.2,1.1l-0.6,0.1c-1,0.1-2,0.2-3,0.3c-1.9,0.2-3.8,0.4-5.8,0.6l-1,0.1l-9.7,0.2L78.1,83
	c-2-0.2-4-0.5-6-0.8c-1-0.1-1.9-0.3-2.9-0.4l-0.6-0.1c-2.1-0.4-4-0.8-5.9-1.2c-1-0.2-2-0.4-3-0.6l-0.4-0.1c-2.1-0.5-4.1-1.1-6-1.6
	c-1-0.3-1.9-0.6-2.9-0.8l-0.5-0.1c-5.6-1.7-11.4-3.7-17.5-6c-6-2.3-11.8-4.7-16.8-6.7c-1.4-0.6-3.8-1.6-6.8-2.9
	c-1.5-0.6-3.1-1.3-4.9-2C-0.5,73.5-1.3,88.6,2,103.6c0.8-0.3,1.6-0.6,2.4-0.8c5.2-1.3,10.3-1.2,15.3-0.9
	C24.8,101.9,29.7,102.4,34.6,103z"/>
<path class="st1" d="M65.3,16.3c9.9,9.9,30.8,26.3,86.1,11.2c-15.9-17-38.7-27.6-64-27.5c-10.2,0-20,1.8-29,5.1
	C59.6,8.8,61.7,12.7,65.3,16.3z"/>
<path class="st1" d="M165.8,48.4c-1.3-2.6-2.7-5.1-4.2-7.6c-17,3-32.3,4.6-45.8,4.6c-28.2,0.1-48.7-6.2-61.2-19
	c-4.8-4.9-7.8-10.2-9.7-15.2c-15,8.4-27.2,21.2-34.8,36.6C26.8,58.2,87.8,89,165.8,48.4z"/>
<g>
	<path class="st1" d="M221.9,59.5c0.6,0.5,1,1.1,1,1.6c0,0.3-0.4,0.5-1.1,0.7c-3,0.4-5.2,0.6-6.5,0.6c-0.7,0-1.3-0.4-2-1.3
		c-0.4-0.6-0.8-2.7-1.3-6.4c-0.5-4.1-1.1-6.8-1.8-8.2c-0.9-2-2.2-3.1-3.8-3.1c-0.5,0-1.2,0.1-1.9,0.4c-0.7,0.8-1.8,2.8-3.3,6.1
		c-1.6,3.5-2.5,6.2-2.5,8.3c0,1,0.3,1.5,0.8,1.7c0.8,0.3,1.1,0.5,1.2,0.7c0,0.3-0.4,0.5-1.3,0.6c-2.5,0.4-5.1,0.5-7.9,0.6
		c-1.5,0.1-2.2-0.9-2.3-2.7c0-3.2,1.7-7.6,5.3-13.2c0.6-1,2.2-3.1,4.6-6.4c2.2-3,3.5-4.6,3.8-4.9h-0.1c-0.6,0-1.5,0.1-2.6,0.4
		c-1.2,0.2-2.1,0.4-2.7,0.4c-1,0-1.5-0.1-1.7-0.5c-0.3-0.5-0.4-1.5-0.4-3.1c0,0.2,0,0.2,0.1-0.1v-2.5c0-2.4-0.3-3.7-0.9-3.9
		c-0.8-0.4-1.2-0.6-1.2-0.9s1.4-0.7,4.3-1.1c2.3-0.3,3.6-0.5,3.7-0.5c1.6,0,2.4,0.5,2.4,1.4c0,0.3,0.1,0.6,0.1,1v2.2
		c0,2.6,0.2,4.8,0.6,6.4l1.8-0.2c0.3,0,1.1-0.2,2.2-0.4c1-0.2,1.7-0.3,2.2-0.2c0.7,0,1,0.1,1,0.4c0,0.4-0.9,1.7-2.6,3.9
		c-1.8,2.3-3,4-3.4,5c-0.1,0.1,0,0.1,0.2,0.1c0.9,0,2.3-0.3,4.2-0.8c1.8-0.6,3.2-0.8,4.2-0.8c0.5,0,0.9,0,1.2,0.1
		c2.6,0.9,4.3,5.7,5.1,14.3c0.2,2.1,0.3,3.3,0.3,3.4C220.9,58.7,221.3,59,221.9,59.5z"/>
	<path class="st1" d="M250.2,26.5c-0.3,0-0.6,0-0.7,0.1c-0.2,0.3-0.5,2.8-1,7.5l-0.7,7.5c0.3,0.1,0.6,0.2,1,0.2
		c0.8,0,1.5-0.3,2.2-0.9c1.7-1.5,2.5-4.5,2.5-8.9v-0.9C253.3,28,252.3,26.5,250.2,26.5z M236.1,31.4c-0.9,1.9-1.4,4.1-1.3,6.6
		c0,1.5,0.1,2.4,0.2,2.8c0.3,1,1,1.5,2.1,1.5s1.9-0.4,2.5-1.3c0.8-6.1,1.4-10.6,1.7-13.8C238.9,27.7,237.2,29.1,236.1,31.4z
		 M260,39.3c-1.5,1.8-3.4,3-5.7,3.6c-1.6,0.4-2.8,0.6-3.6,0.6c-0.5,0-1.6-0.1-3.3-0.4c-1.1,7.6-1.7,12.1-1.9,13.7
		c-0.1,0.9-0.1,1.7,0.1,2.2c0,0.1,0.2,0.3,0.5,0.6c0.3,0.3,0.4,0.5,0.4,0.6c0,0.4-0.5,0.6-1.5,0.7c-2.8,0.3-4.5,0.5-5,0.5
		c-2,0-3-0.7-3-2.1c0-1.4,0.3-4.2,1-8.5c0.7-4.5,1-7,1-7.5c-2.1,0.8-4,1.2-5.8,1.2c-4.7,0-7-2.3-7-7c0-3.9,1.6-6.9,4.8-8.9
		c2.6-1.7,6-2.7,10.4-3c2.4-0.2,5.1-0.3,8-0.4c1.3-0.2,2.5-0.3,3.8-0.3c1.2,0,2.3,0.1,3.2,0.3c1.8,0.5,3.2,1.4,4.2,2.9
		s1.5,3.1,1.5,5C262.2,35.4,261.5,37.5,260,39.3z"/>
	<path class="st1" d="M298.4,26.5c-3.7,0-5.8-1.1-6.3-3.4l-3.4,0.2c0,0.6,0.6,1.8,2,3.6c1.2,1.6,2,2.6,2.3,2.9
		c0.9,0.9,2,1.5,3.2,1.7c2.3,1,3.5,2.9,3.5,5.7c0,0.8-0.1,1.6-0.2,2.4c-1.2,7.7-1.8,12.8-1.8,15.4v0.4c0.1,0.8,0.2,1.8,0.5,2.9
		c0.3,1.5,0.6,2.2,0.8,2.2c0.1,0,0.1-0.1,0.1-0.4c0,0.3-0.5,0.5-1.5,0.6l-4.6,0.4c-1.4,0-2.4-0.6-2.9-2c-0.2-0.5-0.3-1.3-0.3-2.4
		c0-1.3,0.1-2.3,0.2-3.1c0.4-3.2,0.7-6,1-8.2l0.5-3.8c0.5-3.9,0.7-6,0.7-6.2c0-2.5-0.8-3.7-2.5-3.6c-1.5,0.1-2.8,1.5-4.1,4.2
		c-1,2.2-1.6,4.2-1.9,6c-0.5,3.4-0.9,7.8-1.2,13.1c-0.1,2.2,0.1,3.5,0.9,4c0.4,0.4,0.7,0.6,0.7,0.7c0,0.3-0.5,0.5-1.5,0.6
		c-2.6,0.3-4.2,0.4-4.8,0.4c-1.4,0-2.3-0.5-2.8-1.6c-0.2-0.5-0.3-1.5-0.3-3.2c0-3.5,0.3-7.4,0.8-11.7c0.4-3.3,1.4-5.9,2.8-7.9
		c1.4-1.8,3.6-3.6,6.7-5.1c-0.9-1-2.5-3.5-5-7.7h-3c-0.9,2.6-4.4,4-10.4,3.9c-0.6,0-0.9-0.1-0.9-0.5c0-0.1,0.3-0.7,1-1.8
		c0.6-1.2,1-1.9,1-2.3c0.1-0.1,0.1-0.2,0.1-0.4c0-0.4-0.3-1.1-0.7-2l-0.8-1.4c0-0.6,1.5-0.9,4.6-0.9c3.5,0,5.5,1.3,6.2,4.1l14.6-0.7
		c0.7-2.9,3.1-4.4,7.4-4.4c0.3,0,0.7,0,1.1,0.1c1.8,0.1,2.7,0.3,2.7,0.6c0-0.2-0.3,0.3-0.8,1.3c-0.5,1-0.7,1.9-0.7,2.4v0.5
		c0.2,1,0.7,2,1.7,3c0,0.2-0.3,0.4-0.8,0.6C301.3,26.3,300,26.5,298.4,26.5z"/>
	<path class="st1" d="M349.9,60.1c0,0.7-1.1,1-3.2,1c-0.5,0-1.2,0.1-2.2,0.2c-1,0.1-1.7,0.2-2.2,0.2c-1.3,0-2.2-0.5-2.4-1.5
		c-0.1-0.4-0.2-1.4-0.2-3.2c0-1.5,0-3.8,0.2-6.9c0.1-3.9,0.2-5.6,0.2-5.2c0-0.6,0.1-2.3,0.3-4.9c0.2-2.2,0.2-3.9,0.2-5.2
		c0-5.6-1.7-8.4-5-8.4c-1.9,0-3.2,1.2-3.9,3.8c-0.4,1.3-0.7,3-0.9,5.1c-0.4,4.7-0.6,7.6-0.6,8.8c0,3,0.5,4.8,1.4,5.4
		c0.5,0.3,0.8,0.6,0.8,0.7c0,0.2-1,0.5-2.9,0.8c-2.3,0.3-3.6,0.4-4,0.4c-1.6,0-2.5-0.8-2.9-2.4c-0.1-0.5-0.2-2-0.2-4.4
		c0-7.2,1.1-12.2,3.5-14.9c1.3-1.5,3.5-2.7,6.5-3.8c2.8-0.9,5.3-1.4,7.6-1.4c2.8,0,4.9,0.9,6.4,2.8c1.4,1.7,2,3.9,1.9,6.7v1.3
		c-0.1,3.9-0.2,6.4-0.3,7.6l-0.3,3.5c-0.2,3.3-0.3,6.3-0.3,9.3v1.3c0,0.5,0.1,1,0.4,1.6c0.3,0.7,0.6,1.1,1,1.2
		C349.6,59.6,349.9,59.9,349.9,60.1z"/>
	<path class="st1" d="M380,43l-1.5,2.8c-2.2,4.3-4,8-5.3,11.3c-0.2,0.4-0.2,0.7-0.2,1c0,0.5,0.2,0.8,0.7,1c0.2,0.1,0.4,0.2,0.4,0.4
		c0,0.3-0.4,0.5-1.3,0.6c-3.2,0.5-5.2,0.8-6.1,0.8c-1.8,0-2.9-0.7-3.1-2.2v-0.2c0-0.8,0.7-2.6,2.2-5.4l1.7-3
		c3.5-6.5,5.3-10.5,5.3-11.9v-0.4c-0.5-0.4-1.3-0.6-2.3-0.5c-0.3,0-1.1,0.1-2.3,0.2c-0.9,0.1-1.6,0.2-2,0.2c-0.8,0-1.2-0.2-1.2-0.7
		l0.5-1.1c0.6-1.3,1-2.3,1.3-2.7c1.2-2.3,1.9-4.4,2.4-6.4c-0.4-1.3-1.4-2-3-2c-0.6,0-1.2,0.1-1.8,0.4c-0.8,0.3-1.2,0.6-1.2,1
		c0,2.5-0.9,4.5-2.7,6s-3.9,2.3-6.5,2.3c-0.3,0-0.6,0-0.7,0c-0.5,0-0.8-0.2-0.8-0.4l0.9-1.7c0.6-1.1,0.9-1.9,1-2.4
		c0-0.1,0.1-0.3,0-0.6c0-0.4-0.2-1-0.4-1.8c-0.3-0.8-0.4-1.4-0.4-1.7s0.3-0.6,0.8-0.7c6-1.3,10.6-1.9,13.8-1.9
		c3.5,0,6.3,0.5,8.3,1.6c0.8,0.4,1.2,1.2,1.2,2.2c0,0.8-0.7,2.8-2,6.2c-0.8,2-1.2,3-1.2,3.2c0,0.5,0.4,0.7,1.1,0.6
		c0.6,0,1.4-0.1,2.5-0.3c1.1-0.2,1.9-0.3,2.5-0.3c1.3,0,2,0.4,2,1.2C382.1,38.4,381.4,40.2,380,43z"/>
	<path class="st1" d="M416.7,54.4c-0.2,2.4,0.1,3.7,0.9,4c0.3,0.1,0.4,0.2,0.4,0.4c0,0.4-0.4,0.6-1.3,0.8c-3.2,0.6-5.1,0.9-5.9,0.9
		c-1.9,0-2.8-0.8-2.8-2.4v-0.6c0-1,0.4-4.6,1.2-10.6c0.7-5.1,1-8.4,1-10.1c0-1.8-0.3-3.1-0.7-3.9c-0.6-1.2-1.8-1.8-3.4-1.8
		c-2,0-3.7,1-5.2,3.1c-1.1,1.6-1.9,3.5-2.4,5.8c1-0.2,1.7-0.3,2.2-0.3c0.6,0,0.9,0.2,0.8,0.6c0,0.2,0,0.3-0.1,0.4
		c-0.8,2.3-1.3,3.9-1.6,4.7c-0.9,3.1-1.6,6.3-2.2,9.6c-0.1,0.6-0.1,1.2-0.1,1.8c0,1.1,0.3,1.8,0.9,2c0.4,0.2,0.6,0.3,0.6,0.5
		c0,0.4-0.7,0.7-2.2,0.9c-3,0.4-4.6,0.6-4.9,0.6c-1.9,0-2.8-1-2.8-3.2c0-2.1,0.4-4.8,1.2-7.9c0.9-3.3,1.9-5.7,3.1-7.4c0,0,0,0-0.1,0
		c-0.1,0-0.2,0-0.5,0l-1,0.2c-0.9,0.1-1.6,0.2-2,0.2c-0.4,0-0.6-0.1-0.7-0.2s-0.1-0.4-0.1-0.8c0-2.2,1.5-4.8,4.7-7.8
		c-0.6,0-1.4,0.1-2.6,0.4c-1.1,0.2-2,0.4-2.6,0.4s-0.9-0.1-1-0.3c-0.3-0.5-0.5-1.7-0.5-3.5v-1c0-0.3,0-0.8,0-1.4
		c0-0.7,0.1-1.2,0.1-1.5v-1.1c0-2.5-0.4-3.9-1.1-4.1c-0.5-0.1-0.8-0.3-0.8-0.6s0.6-0.7,1.9-1.1c2.9-0.8,5.1-1.2,6.6-1.2
		c1.1,0,1.6,0.2,1.7,0.7c0,0.2,0,0.6,0,1.3c0,0.4,0,1.8-0.1,4.2c-0.1,1.6-0.1,3.2-0.1,4.6s0.1,2.3,0.3,2.8c1.2-0.6,2.9-1.3,5.1-2.1
		c2.9-1,5.5-1.4,7.8-1.4c1,0,1.8,0.1,2.4,0.2c2.6,0.5,4.5,1.4,5.6,2.5c1.2,1.3,1.8,3.2,1.8,5.7c0,1.5-0.1,3-0.2,4.4
		C417.5,47.3,417,51.4,416.7,54.4z"/>
</g>
<path class="st1" d="M187.6,128.8v18.4h-2.2l-10-14.5h-0.2v14.5H173v-18.4h2.2l10.1,14.5h0.2v-14.5H187.6z M200.5,141.6v-8.2h2.1
	v13.8h-2.1v-2.3h-0.1c-0.3,0.7-0.8,1.3-1.5,1.8c-0.7,0.5-1.5,0.7-2.6,0.7c-0.9,0-1.6-0.2-2.3-0.6c-0.7-0.4-1.2-1-1.6-1.7
	c-0.4-0.8-0.6-1.7-0.6-2.9v-8.8h2.1v8.6c0,1,0.3,1.8,0.8,2.4c0.6,0.6,1.3,0.9,2.2,0.9c0.5,0,1.1-0.1,1.6-0.4c0.6-0.3,1-0.7,1.4-1.2
	C200.3,143.1,200.5,142.4,200.5,141.6z M206.5,147.2v-13.8h2.1v2.1h0.1c0.3-0.7,0.7-1.2,1.4-1.7c0.7-0.4,1.4-0.6,2.2-0.6
	c0.2,0,0.4,0,0.6,0c0.2,0,0.4,0,0.5,0v2.2c-0.1,0-0.2,0-0.5-0.1c-0.3,0-0.5-0.1-0.8-0.1c-0.7,0-1.3,0.1-1.8,0.4
	c-0.5,0.3-0.9,0.7-1.2,1.2c-0.3,0.5-0.5,1-0.5,1.7v8.7H206.5z M222.8,133.4v1.8h-7.2v-1.8H222.8z M217.8,130.1h2.1v13.2
	c0,0.6,0.1,1,0.3,1.3c0.2,0.3,0.4,0.5,0.7,0.6c0.3,0.1,0.6,0.1,0.9,0.1c0.2,0,0.4,0,0.6,0c0.1,0,0.3-0.1,0.4-0.1l0.4,1.9
	c-0.1,0.1-0.3,0.1-0.6,0.2c-0.3,0.1-0.6,0.1-1,0.1c-0.6,0-1.2-0.1-1.8-0.4c-0.6-0.3-1-0.7-1.4-1.2c-0.4-0.5-0.6-1.2-0.6-2V130.1z
	 M234.7,141.6v-8.2h2.1v13.8h-2.1v-2.3h-0.1c-0.3,0.7-0.8,1.3-1.5,1.8c-0.7,0.5-1.5,0.7-2.6,0.7c-0.9,0-1.6-0.2-2.3-0.6
	c-0.7-0.4-1.2-1-1.6-1.7c-0.4-0.8-0.6-1.7-0.6-2.9v-8.8h2.1v8.6c0,1,0.3,1.8,0.8,2.4c0.6,0.6,1.3,0.9,2.2,0.9c0.5,0,1.1-0.1,1.6-0.4
	c0.6-0.3,1-0.7,1.4-1.2C234.5,143.1,234.7,142.4,234.7,141.6z M240.7,147.2v-13.8h2v2.1h0.1c0.3-0.7,0.7-1.2,1.4-1.7
	c0.7-0.4,1.4-0.6,2.2-0.6c0.2,0,0.4,0,0.6,0c0.2,0,0.4,0,0.5,0v2.2c-0.1,0-0.2,0-0.5-0.1c-0.3,0-0.5-0.1-0.8-0.1
	c-0.7,0-1.3,0.1-1.8,0.4c-0.5,0.3-0.9,0.7-1.2,1.2c-0.3,0.5-0.5,1-0.5,1.7v8.7H240.7z M250.2,147.2v-13.8h2.1v13.8H250.2z
	 M251.2,131.1c-0.4,0-0.8-0.1-1.1-0.4c-0.3-0.3-0.4-0.6-0.4-1s0.1-0.7,0.4-1c0.3-0.3,0.7-0.4,1.1-0.4c0.4,0,0.8,0.1,1.1,0.4
	c0.3,0.3,0.5,0.6,0.5,1s-0.2,0.7-0.5,1C252,131,251.6,131.1,251.2,131.1z M258.3,138.9v8.3h-2.1v-13.8h2v2.2h0.2
	c0.3-0.7,0.8-1.3,1.5-1.7c0.7-0.4,1.5-0.6,2.6-0.6c0.9,0,1.8,0.2,2.5,0.6c0.7,0.4,1.2,1,1.6,1.7c0.4,0.8,0.6,1.7,0.6,2.9v8.8H265
	v-8.6c0-1.1-0.3-1.9-0.8-2.5c-0.6-0.6-1.3-0.9-2.3-0.9c-0.7,0-1.3,0.1-1.8,0.4c-0.5,0.3-0.9,0.7-1.3,1.3
	C258.4,137.4,258.3,138.1,258.3,138.9z M276.5,152.7c-1,0-1.9-0.1-2.6-0.4c-0.7-0.3-1.4-0.6-1.8-1c-0.5-0.4-0.9-0.9-1.2-1.3l1.7-1.2
	c0.2,0.3,0.4,0.5,0.7,0.9c0.3,0.3,0.7,0.6,1.2,0.9c0.5,0.2,1.2,0.4,2,0.4c1.1,0,2-0.3,2.8-0.8c0.7-0.5,1.1-1.4,1.1-2.5v-2.8h-0.2
	c-0.2,0.3-0.4,0.6-0.7,0.9c-0.3,0.4-0.7,0.7-1.2,1c-0.5,0.3-1.2,0.4-2.1,0.4c-1.1,0-2.1-0.3-3-0.8c-0.9-0.5-1.6-1.3-2.1-2.3
	c-0.5-1-0.8-2.2-0.8-3.7c0-1.4,0.2-2.6,0.7-3.7c0.5-1.1,1.2-1.9,2.1-2.4c0.9-0.6,1.9-0.9,3.1-0.9c0.9,0,1.6,0.1,2.1,0.4
	c0.5,0.3,0.9,0.6,1.2,1c0.3,0.4,0.5,0.7,0.7,0.9h0.2v-2.2h2.1v14.2c0,1.2-0.3,2.2-0.8,2.9c-0.5,0.7-1.3,1.3-2.2,1.6
	C278.6,152.5,277.6,152.7,276.5,152.7z M276.5,145.1c0.9,0,1.6-0.2,2.2-0.6c0.6-0.4,1-0.9,1.3-1.7c0.3-0.7,0.5-1.6,0.5-2.6
	c0-1-0.1-1.9-0.4-2.6c-0.3-0.8-0.7-1.4-1.3-1.8c-0.6-0.4-1.3-0.6-2.2-0.6c-0.9,0-1.6,0.2-2.2,0.7c-0.6,0.5-1,1.1-1.3,1.8
	c-0.3,0.8-0.4,1.6-0.4,2.6c0,1,0.2,1.8,0.5,2.5c0.3,0.7,0.8,1.3,1.3,1.7C274.8,144.9,275.6,145.1,276.5,145.1z M293.8,147.2v-18.4
	h2.2v16.4h8.6v2H293.8z M307.8,147.2v-13.8h2.1v13.8H307.8z M308.8,131.1c-0.4,0-0.8-0.1-1.1-0.4c-0.3-0.3-0.4-0.6-0.4-1
	s0.1-0.7,0.4-1c0.3-0.3,0.7-0.4,1.1-0.4c0.4,0,0.8,0.1,1.1,0.4c0.3,0.3,0.5,0.6,0.5,1s-0.2,0.7-0.5,1
	C309.6,131,309.3,131.1,308.8,131.1z M315.7,142.2l0-2.6h0.4l6-6.1h2.6l-6.4,6.5h-0.2L315.7,142.2z M313.8,147.2v-18.4h2.1v18.4
	H313.8z M322.5,147.2l-5.4-6.8l1.5-1.5l6.6,8.3H322.5z M332.8,147.5c-1.3,0-2.5-0.3-3.4-0.9c-1-0.6-1.7-1.4-2.2-2.5
	c-0.5-1.1-0.8-2.3-0.8-3.7c0-1.4,0.3-2.7,0.8-3.7c0.5-1.1,1.2-1.9,2.2-2.5c0.9-0.6,2-0.9,3.3-0.9c0.7,0,1.4,0.1,2.1,0.4
	c0.7,0.2,1.3,0.6,1.9,1.2c0.6,0.5,1,1.2,1.4,2.1c0.3,0.9,0.5,2,0.5,3.3v0.9h-10.6v-1.8h8.5c0-0.8-0.2-1.5-0.5-2.1
	c-0.3-0.6-0.7-1.1-1.3-1.4c-0.6-0.4-1.2-0.5-2-0.5c-0.8,0-1.6,0.2-2.2,0.6c-0.6,0.4-1.1,1-1.4,1.6c-0.3,0.7-0.5,1.4-0.5,2.1v1.2
	c0,1,0.2,1.9,0.5,2.7c0.4,0.7,0.9,1.3,1.5,1.6c0.6,0.4,1.4,0.6,2.3,0.6c0.6,0,1.1-0.1,1.5-0.2c0.5-0.2,0.8-0.4,1.2-0.7
	c0.3-0.3,0.6-0.7,0.8-1.2l2,0.6c-0.2,0.7-0.6,1.3-1.1,1.8c-0.5,0.5-1.1,0.9-1.9,1.2C334.5,147.4,333.7,147.5,332.8,147.5z
	 M348.1,130.8v-2h13.8v2h-5.8v16.4h-2.2v-16.4H348.1z M367.2,138.9v8.3h-2.1v-18.4h2.1v6.8h0.2c0.3-0.7,0.8-1.3,1.5-1.7
	c0.7-0.4,1.5-0.6,2.6-0.6c0.9,0,1.8,0.2,2.5,0.6c0.7,0.4,1.3,0.9,1.6,1.7c0.4,0.8,0.6,1.7,0.6,2.9v8.8H374v-8.6
	c0-1.1-0.3-1.9-0.9-2.5c-0.6-0.6-1.3-0.9-2.3-0.9c-0.7,0-1.3,0.1-1.9,0.4c-0.5,0.3-1,0.7-1.3,1.3
	C367.3,137.4,367.2,138.1,367.2,138.9z M385.8,147.5c-1.3,0-2.5-0.3-3.4-0.9c-1-0.6-1.7-1.4-2.2-2.5c-0.5-1.1-0.8-2.3-0.8-3.7
	c0-1.4,0.3-2.7,0.8-3.7c0.5-1.1,1.2-1.9,2.2-2.5c0.9-0.6,2-0.9,3.3-0.9c0.7,0,1.4,0.1,2.1,0.4c0.7,0.2,1.3,0.6,1.9,1.2
	c0.6,0.5,1,1.2,1.4,2.1c0.3,0.9,0.5,2,0.5,3.3v0.9h-10.6v-1.8h8.5c0-0.8-0.2-1.5-0.5-2.1c-0.3-0.6-0.7-1.1-1.3-1.4
	c-0.6-0.4-1.2-0.5-2-0.5c-0.8,0-1.6,0.2-2.2,0.6c-0.6,0.4-1.1,1-1.4,1.6c-0.3,0.7-0.5,1.4-0.5,2.1v1.2c0,1,0.2,1.9,0.5,2.7
	c0.4,0.7,0.9,1.3,1.5,1.6c0.6,0.4,1.4,0.6,2.3,0.6c0.6,0,1.1-0.1,1.5-0.2c0.5-0.2,0.8-0.4,1.2-0.7c0.3-0.3,0.6-0.7,0.8-1.2l2.1,0.6
	c-0.2,0.7-0.6,1.3-1.1,1.8c-0.5,0.5-1.1,0.9-1.9,1.2C387.6,147.4,386.8,147.5,385.8,147.5z M402.2,147.2v-18.4h6.2
	c1.4,0,2.6,0.2,3.5,0.7c0.9,0.5,1.6,1.2,2.1,2s0.7,1.8,0.7,2.9c0,1.1-0.2,2-0.7,2.9c-0.4,0.8-1.1,1.5-2,2c-0.9,0.5-2.1,0.7-3.5,0.7
	h-5v-2h5c1,0,1.8-0.1,2.4-0.4c0.6-0.3,1-0.7,1.3-1.2c0.3-0.5,0.4-1.2,0.4-1.9s-0.1-1.4-0.4-1.9c-0.3-0.6-0.7-1-1.3-1.3
	c-0.6-0.3-1.4-0.5-2.4-0.5h-3.9v16.4H402.2z M410.8,138.9l4.5,8.3h-2.6l-4.5-8.3H410.8z M418.1,147.2v-13.8h2.1v13.8H418.1z
	 M419.2,131.1c-0.4,0-0.8-0.1-1.1-0.4c-0.3-0.3-0.4-0.6-0.4-1s0.1-0.7,0.4-1c0.3-0.3,0.7-0.4,1.1-0.4c0.4,0,0.8,0.1,1.1,0.4
	c0.3,0.3,0.5,0.6,0.5,1s-0.1,0.7-0.5,1C419.9,131,419.6,131.1,419.2,131.1z M435.4,133.4l-5.1,13.8h-2.2l-5.1-13.8h2.3l3.8,11h0.1
	l3.8-11H435.4z M443.5,147.5c-1.3,0-2.5-0.3-3.4-0.9c-1-0.6-1.7-1.4-2.2-2.5c-0.5-1.1-0.8-2.3-0.8-3.7c0-1.4,0.3-2.7,0.8-3.7
	c0.5-1.1,1.2-1.9,2.2-2.5c0.9-0.6,2-0.9,3.3-0.9c0.7,0,1.4,0.1,2.1,0.4c0.7,0.2,1.3,0.6,1.9,1.2c0.6,0.5,1,1.2,1.4,2.1
	c0.3,0.9,0.5,2,0.5,3.3v0.9h-10.6v-1.8h8.5c0-0.8-0.2-1.5-0.5-2.1c-0.3-0.6-0.7-1.1-1.3-1.4c-0.6-0.4-1.2-0.5-2-0.5
	c-0.8,0-1.6,0.2-2.2,0.6c-0.6,0.4-1.1,1-1.4,1.6c-0.3,0.7-0.5,1.4-0.5,2.1v1.2c0,1,0.2,1.9,0.5,2.7c0.4,0.7,0.9,1.3,1.5,1.6
	c0.6,0.4,1.4,0.6,2.3,0.6c0.6,0,1.1-0.1,1.5-0.2c0.5-0.2,0.8-0.4,1.2-0.7c0.3-0.3,0.6-0.7,0.8-1.2l2,0.6c-0.2,0.7-0.6,1.3-1.1,1.8
	c-0.5,0.5-1.1,0.9-1.9,1.2C445.3,147.4,444.4,147.5,443.5,147.5z M452.4,147.2v-13.8h2.1v2.1h0.1c0.3-0.7,0.7-1.2,1.4-1.7
	c0.7-0.4,1.4-0.6,2.2-0.6c0.2,0,0.4,0,0.6,0c0.2,0,0.4,0,0.5,0v2.2c-0.1,0-0.2,0-0.5-0.1c-0.3,0-0.5-0.1-0.8-0.1
	c-0.7,0-1.3,0.1-1.8,0.4c-0.5,0.3-0.9,0.7-1.2,1.2c-0.3,0.5-0.4,1-0.4,1.7v8.7H452.4z"/>
</svg>
