<?xml version="1.0" encoding="utf-8"?>
<!-- Generator: Adobe Illustrator 25.4.1, SVG Export Plug-In . SVG Version: 6.00 Build 0)  -->
<svg version="1.1" id="Layer_1" xmlns="http://www.w3.org/2000/svg" xmlns:xlink="http://www.w3.org/1999/xlink" x="0px" y="0px"
	 viewBox="0 0 74.7 74.7" style="enable-background:new 0 0 74.7 74.7;" xml:space="preserve">
<style type="text/css">
	.st0{fill:#F19700;}
</style>
<path class="st0" d="M37,1.1c-19.9,0-36,16.1-36,36s16.1,36,36,36s36-16.1,36-36l0,0C73,17.2,56.9,1.1,37,1.1z M39.8,67.5v-2.4
	c0-1.5-1.2-2.7-2.7-2.7s-2.7,1.2-2.7,2.7l0,0v2.4c-14.8-1.3-26.4-13-27.7-27.8h2.3c1.5,0,2.7-1.2,2.7-2.7s-1.2-2.7-2.7-2.7H6.6
	C8,19.6,19.6,8,34.3,6.7v2.2c0,1.5,1.2,2.7,2.7,2.7s2.7-1.2,2.7-2.7V6.7C54.4,8,66.1,19.6,67.5,34.3h-2.3c-1.5,0-2.7,1.2-2.7,2.7
	s1.2,2.7,2.7,2.7h2.3C66.2,54.5,54.5,66.2,39.8,67.5z"/>
<path class="st0" d="M53.2,19.6L37.1,36.4H37c-0.2,0-0.4,0-0.6,0L23,26.3c-0.9-0.7-2.2-0.5-2.9,0.4s-0.5,2.2,0.4,2.9L34,39.7
	c0.2,1.7,1.7,2.9,3.4,2.7c1.5-0.2,2.7-1.4,2.7-3c0-0.1,0-0.2,0-0.2l16.1-16.9c0.8-0.8,0.7-2.1-0.1-2.9C55.3,18.7,54,18.7,53.2,19.6
	L53.2,19.6z"/>
</svg>
